HIERARCHY
ROOT Hips
{
	OFFSET	0.00	0.00	0.00
	CHANNELS 6 Xposition Yposition Zposition Zrotation Xrotation Yrotation
	JOINT LeftHip
	{
		OFFSET	 3.430000	 0.000000	 0.000000
		CHANNELS 3 Zrotation Xrotation Yrotation
		JOINT LeftKnee
		{
			OFFSET	 0.000000	-18.469999	 0.000000
			CHANNELS 3 Zrotation Xrotation Yrotation
			JOINT LeftAnkle
			{
				OFFSET	 0.000000	-17.950001	 0.000000
				CHANNELS 3 Zrotation Xrotation Yrotation
				End Site 
				{
					OFFSET	 0.000000	-3.119996	 0.000000
				}
			}
		}
	}
	JOINT RightHip
	{
		OFFSET	-3.430000	 0.000000	 0.000000
		CHANNELS 3 Zrotation Xrotation Yrotation
		JOINT RightKnee
		{
			OFFSET	 0.000000	-18.809999	 0.000000
			CHANNELS 3 Zrotation Xrotation Yrotation
			JOINT RightAnkle
			{
				OFFSET	 0.000000	-17.570000	 0.000000
				CHANNELS 3 Zrotation Xrotation Yrotation
				End Site 
				{
					OFFSET	 0.000000	-3.250000	 0.000000
				}
			}
		}
	}
	JOINT Chest
	{
		OFFSET	 0.000000	 4.570000	 0.000000
		CHANNELS 3 Zrotation Xrotation Yrotation
		JOINT LeftCollar
		{
			OFFSET	 1.060000	 15.330000	 1.760000
			CHANNELS 3 Zrotation Xrotation Yrotation
			JOINT LeftShoulder
			{
				OFFSET	 5.810000	 0.000000	 0.000000
				CHANNELS 3 Zrotation Xrotation Yrotation
				JOINT LeftElbow
				{
					OFFSET	 0.000000	-12.080000	 0.000000
					CHANNELS 3 Zrotation Xrotation Yrotation
					JOINT LeftWrist
					{
						OFFSET	 0.000000	-9.820000	 0.000000
						CHANNELS 3 Zrotation Xrotation Yrotation
						End Site 
						{
							OFFSET	 0.000000	-7.369996	 0.000000
						}
					}
				}
			}
		}
		JOINT RightCollar
		{
			OFFSET	-1.060000	 15.330000	 1.760000
			CHANNELS 3 Zrotation Xrotation Yrotation
			JOINT RightShoulder
			{
				OFFSET	-6.060000	 0.000000	 0.000000
				CHANNELS 3 Zrotation Xrotation Yrotation
				JOINT RightElbow
				{
					OFFSET	 0.000000	-11.900000	 0.000000
					CHANNELS 3 Zrotation Xrotation Yrotation
					JOINT RightWrist
					{
						OFFSET	 0.000000	-9.520000	 0.000000
						CHANNELS 3 Zrotation Xrotation Yrotation
						End Site 
						{
							OFFSET	 0.000000	-7.140012	 0.000000
						}
					}
				}
			}
		}
		JOINT Neck
		{
			OFFSET	 0.000000	 17.620001	 0.000000
			CHANNELS 3 Zrotation Xrotation Yrotation
			JOINT Head
			{
				OFFSET	 0.000000	 5.190000	 0.000000
				CHANNELS 3 Zrotation Xrotation Yrotation
				End Site 
				{
					OFFSET	 0.000000	 4.140008	 0.000000
				}
			}
		}
	}
}

MOTION
Frames: 18
Frame Time: 0.033333
-20.4609 -8.5229 -36.1618 0.769281 -7.2638 158.522 37.9912 -12.3443 17.5761 1.01632 65.1074 -2.14691 -23.2603 -28.8851 -5.65799 -51.3791 -40.1904 -26.4259 2.60355 49.7805 7.03725 32.0909 -2.80194 27.6747 19.431 36.7545 -21.5596 0 0 0 39.3002 -41.2185 15.4761 -91.037 -47.266 -69.1213 37.043 -13.1831 3.86223 0 0 0 -45.3734 -30.5281 -4.82652 76.3286 -56.5986 65.7266 -54.0368 -35.6552 2.60695 0 0 0 10.9074 -25.0827 -48.5982 
-20.7673 -8.6309 -36.2874 0.739693 -8.14843 156.498 38.2015 -11.6095 18.9594 0.976399 65.923 -1.96275 -22.4846 -28.9211 -4.99345 -51.1414 -41.7527 -26.8307 2.75219 49.1667 6.85964 32.5231 -2.70657 28.6332 23.2138 33.4694 -31.6885 0 0 0 37.19 -48.6546 5.74721 -92.6593 -46.6494 -70.7911 38.6486 -12.0859 2.06939 0 0 0 -45.3696 -19.9086 -8.51385 80.3695 -56.4369 69.0175 -62.2691 -38.9865 -3.01434 0 0 0 11.7517 -23.4611 -44.7062 
-20.9707 -8.769 -36.2748 0.571646 -9.10076 155.309 38.4069 -11.5536 20.2137 0.891157 66.4777 -1.77169 -21.8537 -28.8161 -4.59774 -51.5908 -42.9522 -28.2332 2.69259 48.9101 6.7843 32.8753 -2.52088 29.6227 25.1131 30.3009 -39.5916 0 0 0 32.7372 -53.5171 -5.1125 -93.2759 -46.8641 -71.0185 39.834 -11.0125 1.42128 0 0 0 -43.5938 -10.6167 -10.9225 84.0096 -56.5577 71.6618 -70.2576 -41.157 -7.76532 0 0 0 12.4244 -21.8296 -41.6346 
-21.0937 -8.9021 -36.1191 0.35352 -9.916 154.912 38.61 -12.0145 20.9101 0.770638 66.943 -1.53751 -21.6286 -29.0072 -4.64171 -52.3878 -43.6043 -30.2639 2.29521 48.7262 6.94809 32.8499 -1.91664 30.3924 25.7264 27.7503 -44.8314 0 0 0 27.1689 -56.1752 -15.2436 -94.1828 -46.5524 -71.6424 40.5542 -10.5851 1.04539 0 0 0 -41.0942 -3.19977 -12.1147 87.2835 -56.685 74.212 -76.1545 -42.9875 -10.6893 0 0 0 12.7048 -20.6628 -39.2004 
-21.1063 -8.9925 -35.8379 0.0986732 -10.344 155.487 38.7404 -13.1013 20.9231 0.518382 66.8338 -1.17979 -21.3989 -28.8714 -4.71641 -53.3274 -43.464 -32.2705 1.81012 48.6899 7.14326 32.7384 -1.50966 30.7887 25.9813 27.2013 -47.0488 0 0 0 22.903 -57.8738 -21.2431 -94.4843 -45.7998 -71.8913 39.5291 -11.219 0.456626 0 0 0 -38.1179 1.62685 -12.9676 89.5072 -57.1557 75.9796 -80.0729 -44.778 -12.451 0 0 0 12.2137 -20.7958 -36.5696 
-20.9632 -9.0653 -35.3632 0.20412 -10.1531 157.154 38.8727 -14.2972 20.2247 0.266428 66.3397 -0.806625 -20.9847 -28.4882 -4.77214 -53.8372 -42.2604 -33.4882 1.64788 48.9512 7.43582 32.6008 -1.73022 30.5742 26.4018 28.1854 -47.1408 0 0 0 19.5568 -58.5005 -24.297 -93.3996 -45.8418 -70.9341 38.7524 -11.8015 -0.142615 0 0 0 -35.3093 3.89661 -13.8025 89.5097 -57.9544 75.6068 -82.0673 -46.4442 -13.3325 0 0 0 10.7101 -21.648 -33.4739 
-20.6342 -9.1105 -34.7656 0.478793 -9.47774 159.942 39.0423 -15.9665 19.0789 0.19247 65.5445 -0.670083 -20.5765 -27.8231 -5.1052 -53.9985 -40.0886 -34.348 1.41378 49.4004 7.97594 32.3954 -2.36381 29.8584 26.7624 29.7469 -45.2394 0 0 0 17.9825 -57.4639 -23.963 -91.1683 -46.6282 -68.8679 38.1167 -12.7358 -0.332788 0 0 0 -34.1613 3.44964 -13.8515 88.2818 -59.1372 73.9877 -81.1081 -47.8107 -12.8642 0 0 0 8.31722 -22.5686 -29.2507 
-20.1169 -9.1582 -34.065 0.960706 -8.38956 163.906 39.4324 -18.2844 17.7075 0.287501 64.3759 -1.04961 -20.2892 -26.5227 -5.68855 -53.5373 -37.1143 -34.5063 1.2452 50.0615 8.31156 31.8101 -3.38417 28.5602 26.8602 31.9548 -41.5845 0 0 0 19.9274 -54.7507 -18.4842 -91.2908 -45.7559 -68.8117 38.3709 -13.931 -0.113746 0 0 0 -34.349 0.653174 -13.5241 87.4375 -59.5522 72.9956 -77.8326 -48.4012 -10.3818 0 0 0 5.82617 -23.1604 -23.382 
-19.3987 -9.1984 -33.3216 1.52958 -6.90491 168.791 39.8195 -21.0626 16.1045 0.694521 63.0795 -1.93755 -20.6045 -25.2025 -6.78144 -53.0104 -33.4456 -34.4148 1.28502 50.9503 8.71166 30.9769 -4.99511 26.6685 26.3063 34.815 -36.2616 0 0 0 24.2125 -50.5274 -9.48606 -90.7075 -45.722 -68.0959 37.4655 -16.2195 0.610604 0 0 0 -35.3177 -4.02968 -11.9143 87.9277 -58.8959 74.1802 -74.4599 -47.9151 -6.16054 0 0 0 3.03611 -23.9872 -15.5741 
-18.4671 -9.221 -32.6436 1.89673 -5.18796 174.16 39.9185 -24.1433 14.3524 0.781944 61.4252 -1.7903 -21.7488 -23.1861 -8.92342 -52.3709 -29.5146 -33.7971 1.44664 52.057 8.98476 30.0068 -7.2319 24.2112 25.0682 38.2143 -29.064 0 0 0 28.737 -44.9424 0.275071 -90.1498 -46.2458 -67.8245 36.6962 -18.628 1.93522 0 0 0 -36.7686 -9.97427 -9.41598 87.4907 -58.981 74.2257 -68.4753 -47.953 -1.5628 0 0 0 -0.768546 -25.4656 -6.36566 
-17.3572 -9.236 -32.0961 1.94537 -3.54794 179.729 39.9365 -27.3248 12.9931 0.742447 59.4468 -1.70043 -23.0225 -20.7883 -11.1974 -51.7014 -25.9126 -33.0149 1.23233 53.7454 9.47326 29.0414 -10.1178 21.3599 22.5902 42.549 -19.6549 0 0 0 31.4821 -38.114 8.71488 -90.86 -46.3653 -68.9359 36.5885 -20.1918 3.79942 0 0 0 -38.06 -16.0164 -7.21695 88.023 -58.9502 75.0307 -62.6144 -47.5096 2.77497 0 0 0 -5.16238 -26.985 2.59869 
-15.9283 -9.2436 -31.7521 1.97053 -2.32539 -173.611 40.0885 -31.3245 11.8278 0.4538 57.519 -1.69788 -24.7258 -17.8714 -13.8756 -50.7552 -21.9649 -32.0974 1.46791 55.8732 9.64853 27.3518 -13.5563 17.6407 17.6083 47.4104 -6.96736 0 0 0 31.5504 -31.259 14.0975 -90.649 -47.2235 -67.9915 37.3501 -20.9922 6.05857 0 0 0 -39.3611 -22.9641 -4.21649 89.5747 -58.503 76.5788 -57.0694 -45.4031 6.90438 0 0 0 -8.97793 -27.7735 10.0795 
-14.4317 -9.2511 -31.6542 1.98201 -1.52808 -166.884 40.2479 -35.7017 10.8809 0.0709773 55.6295 -1.61189 -26.4109 -14.4897 -16.7523 -49.7381 -18.2631 -31.5185 1.63835 57.9467 9.58279 25.448 -16.7266 14.0988 9.9399 50.3024 6.7798 0 0 0 30.5615 -24.3286 18.3943 -91.9344 -46.8611 -68.255 39.5195 -21.0165 8.42085 0 0 0 -39.9539 -29.9275 -0.632895 91.639 -58.0079 78.53 -52.8224 -42.4523 10.484 0 0 0 -11.6442 -28.1415 16.3118 
-12.9978 -9.2863 -31.7044 1.9814 -1.10537 -160.345 40.0975 -40.0595 10.0112 -0.278311 53.8276 -1.46312 -27.8534 -10.9366 -19.5668 -48.6351 -14.8514 -31.1218 2.07825 59.9828 9.05562 23.558 -19.7596 10.679 1.44055 51.6404 19.6626 0 0 0 28.7974 -18.0377 21.9886 -93.5738 -46.1404 -68.8599 41.6961 -20.8117 10.9907 0 0 0 -39.628 -36.5527 2.9185 93.7723 -57.2173 80.7908 -50.5298 -38.5398 13.873 0 0 0 -13.5478 -28.7159 20.9412 
-11.7045 -9.339 -31.8626 1.89385 -0.929161 -154.197 39.6187 -44.1723 9.34699 -0.411823 52.3323 -1.24818 -29.0851 -7.60637 -22.4654 -47.6238 -11.8612 -31.191 2.19395 62.038 8.93408 22.0679 -22.7424 7.47337 -7.18529 51.6777 30.8315 0 0 0 26.7515 -13.1524 24.5985 -94.0096 -46.5127 -68.9299 42.3986 -20.737 13.3747 0 0 0 -37.8021 -43.0228 7.20231 94.5852 -57.3621 81.3761 -48.6985 -34.7642 16.801 0 0 0 -14.648 -30.0699 23.7452 
-10.6122 -9.4043 -32.0735 1.70649 -0.88792 -148.58 38.7196 -47.9681 8.5005 -0.702319 50.8953 -0.492758 -29.7332 -4.28185 -25.016 -46.5957 -9.12053 -31.3456 2.3432 63.8514 8.63265 20.705 -25.3159 4.57607 -14.1196 50.9089 39.0986 0 0 0 24.949 -10.1803 25.5347 -94.8294 -46.5245 -69.6051 43.3906 -19.914 15.194 0 0 0 -35.9398 -47.8499 10.5934 94.5642 -58.4121 80.7865 -45.5721 -32.4721 19.0857 0 0 0 -15.137 -31.6342 24.5323 
-9.8061 -9.4796 -32.2568 1.46139 -0.700406 -143.611 37.9773 -51.159 7.89162 -1.00062 49.8259 -0.515883 -29.9217 -1.7244 -26.5773 -45.4627 -6.65466 -31.5101 2.59202 65.3772 8.14934 19.4272 -27.309 2.13697 -18.643 50.0618 44.3084 0 0 0 23.6638 -9.19305 24.8214 -95.5771 -46.43 -69.8568 44.5699 -18.7539 16.1459 0 0 0 -34.8868 -50.8751 11.7148 94.9489 -58.2147 80.9053 -44.8276 -30.6884 20.3253 0 0 0 -15.3784 -32.7006 23.3311 
-9.3089 -9.5474 -32.3724 1.2771 -0.142165 -139.565 37.287 -53.6056 7.19331 -1.17431 49.0751 -0.476441 -29.8068 0.488299 -28.0139 -44.3578 -4.14947 -31.6363 3.49059 66.1601 7.17085 18.3679 -28.613 0.408487 -20.5972 49.5573 45.8241 0 0 0 23.1483 -9.72693 23.3369 -95.8326 -46.258 -69.5212 45.5363 -17.8842 16.3328 0 0 0 -33.265 -52.891 12.5939 94.3289 -58.2894 80.1722 -44.771 -29.9247 21.0347 0 0 0 -14.7482 -33.0381 22.2525 
